<svg version="1.1" xmlns="http://www.w3.org/2000/svg" width="500" height="500">

<path d="M0 0 C1.43566539 -0.00445668 1.43566539 -0.00445668 2.90033412 -0.0090034 C6.12771762 -0.0177187 9.35506414 -0.01920104 12.5824585 -0.02069092 C14.8882607 -0.02531712 17.19406214 -0.03034151 19.49986267 -0.03573608 C25.77887218 -0.0488818 32.057871 -0.05530935 38.33689213 -0.05974674 C42.25701353 -0.06267417 46.17713197 -0.06677835 50.09725189 -0.07125092 C60.94894427 -0.08336338 71.8006334 -0.09374403 82.65233231 -0.09712601 C83.69454585 -0.09745536 83.69454585 -0.09745536 84.75781421 -0.09779136 C85.45429804 -0.09800964 86.15078186 -0.09822791 86.86837125 -0.09845281 C88.27974018 -0.09889627 89.6911091 -0.09934284 91.10247803 -0.09979248 C91.80256763 -0.10001391 92.50265724 -0.10023534 93.22396168 -0.10046348 C104.56533151 -0.10441061 115.90663705 -0.1218611 127.24798205 -0.145152 C138.88946577 -0.16886642 150.53091405 -0.18106994 162.17242217 -0.18249393 C168.7096742 -0.18354344 175.24683561 -0.18948226 181.78406525 -0.20731354 C187.93341127 -0.22375976 194.08259825 -0.22596644 200.23195839 -0.21717453 C202.49024951 -0.21640229 204.74854905 -0.22077139 207.00681877 -0.23063278 C210.08766301 -0.24329809 213.16793935 -0.23750469 216.2487793 -0.22705078 C217.14431086 -0.23510719 218.03984242 -0.24316359 218.9625113 -0.25146413 C224.71652049 -0.2057418 229.13936455 0.58361528 233.52288818 4.67559814 C237.74563058 10.19764589 238.03513285 13.5218351 238.05535889 20.36016846 C238.06193008 21.31642624 238.06850128 22.27268402 238.07527161 23.25791931 C238.09503198 26.43230258 238.10667365 29.60663847 238.11663818 32.78106689 C238.12071371 33.86396751 238.12478924 34.94686813 238.12898827 36.06258392 C238.14986124 41.7947521 238.16415734 47.52689625 238.17352295 53.25909424 C238.18458658 59.18199454 238.21898274 65.10451907 238.25869465 71.02728653 C238.28483374 75.57921042 238.29321243 80.13104446 238.29680443 84.6830368 C238.30167781 86.86631557 238.31331307 89.04959014 238.33184242 91.23279572 C238.35617447 94.28987932 238.35527937 97.34598653 238.34832764 100.40313721 C238.36754272 101.75465126 238.36754272 101.75465126 238.387146 103.13346863 C238.34155612 108.63774333 237.55134014 111.77704317 233.87835693 116.14044189 C228.37677455 120.98707399 224.89388072 121.28906922 217.71875 121.28761292 C216.27695928 121.29312795 216.27695928 121.29312795 214.80604148 121.29875439 C211.56484185 121.30982313 208.32367423 121.31364046 205.0824585 121.31744385 C202.76680397 121.32370607 200.45115045 121.33035265 198.13549805 121.33735657 C191.8296331 121.35478828 185.52377574 121.36532415 179.21789265 121.3735621 C175.2810204 121.37870741 171.34415054 121.38478334 167.40727997 121.39107323 C156.50926603 121.40794585 145.61125501 121.4225809 134.71323013 121.42982197 C131.88448332 121.4317319 129.05573652 121.43365222 126.22698975 121.43560791 C125.52390953 121.43609165 124.82082931 121.43657539 124.09644362 121.43707379 C112.70655426 121.44537439 101.31676991 121.47071125 89.9269264 121.50318859 C78.2357218 121.53625367 66.54457599 121.55393742 54.85332465 121.55746621 C48.28809457 121.55982055 41.72303043 121.56883104 35.15784454 121.59392738 C28.98220082 121.61715269 22.80683294 121.62146353 16.63115692 121.611166 C14.36318547 121.61066919 12.0952007 121.61703218 9.82727051 121.63072205 C6.73314675 121.64835549 3.64002206 121.64137644 0.54589844 121.62818909 C-0.35352407 121.63915833 -1.25294658 121.65012758 -2.17962432 121.66142923 C-7.65670551 121.60499482 -10.77737911 120.78914133 -15.12164307 117.14044189 C-19.97574335 111.63038211 -20.27738439 108.10883887 -20.29864502 100.92071533 C-20.30521622 99.96445755 -20.31178741 99.00819977 -20.31855774 98.02296448 C-20.33831811 94.84858121 -20.34995978 91.67424532 -20.35992432 88.49981689 C-20.36399984 87.41691628 -20.36807537 86.33401566 -20.3722744 85.21829987 C-20.39314737 79.48613169 -20.40744347 73.75398754 -20.41680908 68.02178955 C-20.42787271 62.09888925 -20.46226887 56.17636472 -20.50198078 50.25359726 C-20.52811987 45.70167337 -20.53649856 41.14983933 -20.54009056 36.59784698 C-20.54496394 34.41456821 -20.5565992 32.23129365 -20.57512856 30.04808807 C-20.5994606 26.99100447 -20.59856551 23.93489726 -20.59161377 20.87774658 C-20.60442383 19.97673721 -20.61723389 19.07572784 -20.63043213 18.14741516 C-20.58484226 12.64314046 -19.79462628 9.50384062 -16.12164307 5.14044189 C-10.62901403 0.30169726 -7.16318397 -0.00686245 0 0 Z " fill="#FD3030" transform="translate(256.12164306640625,194.85955810546875)" data-index="1" style="visibility: visible; opacity: 1;"></path>
<path d="M0 0 C3.63 0 7.26 0 11 0 C15.04941033 13.08365707 18.9550614 26.19416539 22.60180664 39.39624023 C24.32272619 45.62259786 26.11504155 51.82124206 28 58 C28.35191406 56.75089844 28.70382813 55.50179687 29.06640625 54.21484375 C32.11708167 43.43858139 35.29219452 32.71010115 38.59057617 22.00708008 C40.42516901 16.01221585 42.10010433 10.02865566 43.4921875 3.9140625 C44 2 44 2 45 1 C47.86267567 0.92674832 50.700719 0.90761795 53.5625 0.9375 C54.36880859 0.94201172 55.17511719 0.94652344 56.00585938 0.95117188 C58.00393756 0.96299482 60.00197783 0.98093086 62 1 C59.61551815 10.37944957 56.57490173 19.5177851 53.4921875 28.68359375 C52.9604759 30.27244403 52.42907891 31.86139962 51.89797974 33.45045471 C50.51016202 37.60070866 49.11899021 41.7498294 47.72680664 45.89862061 C45.49126348 52.56183993 43.25990568 59.22645874 41.03042984 65.89171028 C40.25356827 68.21210078 39.47465595 70.53179548 38.69552612 72.85142517 C38.21996276 74.27128834 37.74446481 75.69117342 37.26904297 77.11108398 C36.85395477 78.34809555 36.43886658 79.58510712 36.01119995 80.85960388 C35.2533037 83.21333665 34.5997286 85.60108561 34 88 C29.71 88 25.42 88 21 88 C17.80410909 78.08367183 14.7109951 68.15086752 11.875 58.125 C9.37796368 45.17369865 9.37796368 45.17369865 4 34 C2.81125429 38.14547712 1.62413962 42.29141954 0.4375 46.4375 C0.07906006 47.68893799 -0.27937988 48.94037598 -0.64868164 50.22973633 C-2.4738723 56.61040907 -4.28269354 62.99491503 -6.0546875 69.390625 C-6.53119751 71.1087439 -6.53119751 71.1087439 -7.01733398 72.86157227 C-7.62389358 75.05397379 -8.22763919 77.24715607 -8.82836914 79.44116211 C-9.10028076 80.4235083 -9.37219238 81.40585449 -9.65234375 82.41796875 C-9.88945068 83.28188232 -10.12655762 84.1457959 -10.37084961 85.03588867 C-11 87 -11 87 -12 88 C-14.01964199 88.07244053 -16.04167124 88.08377188 -18.0625 88.0625 C-19.16722656 88.05347656 -20.27195312 88.04445313 -21.41015625 88.03515625 C-22.26480469 88.02355469 -23.11945312 88.01195312 -24 88 C-30.26953125 67.9375 -30.26953125 67.9375 -30.84971619 66.08087158 C-31.46087805 64.12518805 -32.07211138 62.16952685 -32.68334961 60.21386719 C-33.50139596 57.59620946 -34.31880153 54.97835485 -35.13574219 52.36035156 C-37.36740091 45.2111606 -39.60724938 38.06464597 -41.859375 30.921875 C-42.3398509 29.39713767 -42.82031964 27.87239808 -43.30078125 26.34765625 C-44.03310947 24.02374131 -44.76580619 21.69994535 -45.49951172 19.37646484 C-46.22471308 17.07944052 -46.94842697 14.78195204 -47.671875 12.484375 C-47.89164001 11.78963074 -48.11140503 11.09488647 -48.33782959 10.37908936 C-49.31725491 7.26444142 -50.20758338 4.16966648 -51 1 C-45.06 1 -39.12 1 -33 1 C-29.34172247 13.04554795 -25.80806534 25.11147236 -22.44897461 37.24389648 C-20.70870359 43.52015874 -18.89989482 49.77013231 -17 56 C-14.65202157 53.65202157 -14.37506722 52.287874 -13.5546875 49.1015625 C-13.28599854 48.07724121 -13.01730957 47.05291992 -12.74047852 45.99755859 C-12.31206665 44.32814209 -12.31206665 44.32814209 -11.875 42.625 C-11.25849014 40.27552129 -10.63992343 37.92658155 -10.01953125 35.578125 C-9.6942041 34.34642578 -9.36887695 33.11472656 -9.03369141 31.84570312 C-7.28351372 25.33441383 -5.42500088 18.85489877 -3.5625 12.375 C-3.20849121 11.14217285 -2.85448242 9.9093457 -2.48974609 8.63916016 C-1.66149879 5.7589599 -0.83101231 2.87940369 0 0 Z " fill="#040404" transform="translate(59,213)" data-index="2" style="visibility: visible;"></path>
<path d="M0 0 C0.66 0.66 1.32 1.32 2 2 C2.33 0.68 2.66 -0.64 3 -2 C7.95 -2 12.9 -2 18 -2 C18 16.15 18 34.3 18 53 C13.05 53 8.1 53 3 53 C2.505 51.02 2.505 51.02 2 49 C1.278125 49.61875 0.55625 50.2375 -0.1875 50.875 C-5.85496938 55.15708798 -11.02411482 55.8426528 -18 55 C-24.16673971 53.15439869 -29.18353465 49.12413749 -33 44 C-37.7836914 34.59207357 -39.58678768 25.21169657 -36.875 14.875 C-34.26259113 7.1349793 -29.9169895 2.04922069 -22.9296875 -2.08984375 C-15.06824335 -5.79777186 -7.12080346 -4.67889724 0 0 Z " fill="#030303" transform="translate(167,246)" data-index="3" style="visibility: visible;"></path>
<path d="M0 0 C5.28 0 10.56 0 16 0 C16.33 14.52 16.66 29.04 17 44 C18.65 42.68 20.3 41.36 22 40 C28.23776376 37.92074541 35.19722157 38.29999692 41.24609375 40.890625 C46.31449688 44.09647464 48.47349253 49.41733291 50 55 C50.26290895 58.18797184 50.23342582 61.35774207 50.1953125 64.5546875 C50.1924826 65.45623566 50.18965271 66.35778381 50.18673706 67.28665161 C50.17559439 70.14957276 50.1505008 73.01217434 50.125 75.875 C50.11496255 77.82291213 50.10583804 79.77082919 50.09765625 81.71875 C50.07567443 86.4792887 50.0411855 91.23959027 50 96 C44.72 96 39.44 96 34 96 C33.98541748 94.87505127 33.97083496 93.75010254 33.95581055 92.59106445 C33.89772246 88.40682613 33.82049036 84.22312003 33.73754883 80.03930664 C33.70434886 78.23047542 33.67630159 76.42154182 33.65356445 74.61254883 C33.61992742 72.00818367 33.56760805 69.4047524 33.51171875 66.80078125 C33.50532883 65.99538406 33.4989389 65.18998688 33.49235535 64.36018372 C33.37352632 59.79525687 32.97989325 56.69434138 30 53 C27.83929394 52.28756535 27.83929394 52.28756535 25.5 52.5 C24.7265625 52.5103125 23.953125 52.520625 23.15625 52.53125 C20.52702596 53.10282044 19.63207178 53.89024867 18 56 C16.73374576 59.79876271 16.76701453 63.42421926 16.68359375 67.38671875 C16.66281265 68.20372757 16.64203156 69.02073639 16.62062073 69.86250305 C16.55526921 72.47075034 16.49630727 75.07909775 16.4375 77.6875 C16.39430108 79.45639054 16.35068635 81.22527097 16.30664062 82.99414062 C16.19882044 87.32932597 16.09964028 91.66458802 16 96 C10.72 96 5.44 96 0 96 C0 64.32 0 32.64 0 0 Z " fill="#050101" transform="translate(318,203)" data-index="4" style="visibility: visible;"></path>
<path d="M0 0 C2.30078125 2.03125 2.30078125 2.03125 2.69970703 4.05541992 C2.79445601 6.62684506 2.73549159 9.14857244 2.61328125 11.71875 C2.59072266 12.61142578 2.56816406 13.50410156 2.54492188 14.42382812 C2.48598699 16.62799272 2.40378943 18.82877672 2.30078125 21.03125 C1.61371094 20.60972656 0.92664063 20.18820313 0.21875 19.75390625 C-0.68230469 19.20605469 -1.58335937 18.65820312 -2.51171875 18.09375 C-3.40503906 17.54847656 -4.29835938 17.00320312 -5.21875 16.44140625 C-10.5507393 13.41014934 -15.71411125 13.56956569 -21.69921875 14.03125 C-28.77955991 16.23660216 -33.7371494 19.94578831 -37.57421875 26.21875 C-41.29853579 34.24591876 -41.04027702 44.44225853 -39 52.9453125 C-36.51341294 59.05161491 -32.36417408 64.01628377 -27.13671875 67.96875 C-19.61929817 70.29231636 -12.16625758 70.17107276 -5.07421875 66.65625 C-2.53139904 65.21165807 -0.1344057 63.65470797 2.30078125 62.03125 C2.30078125 68.30125 2.30078125 74.57125 2.30078125 81.03125 C-8.99973874 86.10829521 -20.0392894 88.64793003 -32.07421875 84.09375 C-44.43376149 78.13228577 -52.0867341 67.91665339 -56.9375 55.390625 C-60.90512818 43.10115104 -58.89765064 30.68219755 -53.34375 19.23828125 C-47.67463261 9.19193649 -39.15411835 1.05548659 -27.88671875 -2.34375 C-18.33617932 -4.24223451 -9.06160318 -3.25221069 0 0 Z " fill="#040000" transform="translate(297.69921875,214.96875)" data-index="5" style="visibility: visible;"></path>
<path d="M0 0 C5.28 0 10.56 0 16 0 C16 31.68 16 63.36 16 96 C10.72 96 5.44 96 0 96 C0 64.32 0 32.64 0 0 Z " fill="#050101" transform="translate(457,203)" data-index="6" style="visibility: visible;"></path>
<path d="M0 0 C4.95 0 9.9 0 15 0 C15 31.35 15 62.7 15 95 C10.05 95 5.1 95 0 95 C0 63.65 0 32.3 0 0 Z " fill="#000000" transform="translate(423,204)" data-index="7" style="visibility: visible;"></path>
<path d="M0 0 C5.28 0 10.56 0 16 0 C16 6.27 16 12.54 16 19 C19.3 19 22.6 19 26 19 C26 23.29 26 27.58 26 32 C22.7 32 19.4 32 16 32 C16 45.86 16 59.72 16 74 C10.72 74 5.44 74 0 74 C0 60.14 0 46.28 0 32 C-1.65 32 -3.3 32 -5 32 C-5 27.71 -5 23.42 -5 19 C-3.35 19 -1.7 19 0 19 C0 12.73 0 6.46 0 0 Z " fill="#040404" transform="translate(206,225)" data-index="8" style="visibility: visible;"></path>
<path d="M0 0 C5.28 0 10.56 0 16 0 C16 18.15 16 36.3 16 55 C10.72 55 5.44 55 0 55 C0 36.85 0 18.7 0 0 Z " fill="#060101" transform="translate(387,244)" data-index="9" style="visibility: visible;"></path>
<path d="M0 0 C3.69552303 1.30430225 5.67681821 2.65980864 8.375 5.5 C11.13001138 11.43387067 10.97346339 17.32297568 8.75 23.4375 C4.58936071 29.52986468 4.58936071 29.52986468 0.953125 30.60546875 C-3.12304113 31.29622845 -5.46654153 31.23150085 -9.3125 29.5625 C-13.63387831 25.44211603 -16.14811986 20.97810901 -16.5 14.9375 C-15.76364074 9.13867082 -13.75297836 5.84773395 -9.6875 1.5625 C-6.15426653 -0.4917055 -4.03633558 -0.49569033 0 0 Z " fill="#F9F9F9" transform="translate(161,256)" data-index="10" style="visibility: visible;"></path>
<path d="M0 0 C4.529087 0.51272683 6.26137669 2.04005127 9.3125 5.375 C10.51486189 9.33572151 10.73965714 11.36331203 9.125 15.1875 C6.40410536 18.47133835 4.58062841 19.21311127 0.375 19.75 C-3.62814528 19.25981895 -5.06210487 18.45046286 -7.6875 15.375 C-8.72414479 12.30515685 -9.10089075 9.59600296 -8.6875 6.375 C-6.3125 3.375 -6.3125 3.375 -3.6875 1.375 C-2.6875 0.375 -2.6875 0.375 0 0 Z " fill="#0A0202" transform="translate(394.6875,210.625)" data-index="11" style="visibility: visible;"></path>
</svg>